# xmcd
#
# Track frame offsets: 
#        150
#        3360
#        17712
#        19997
#        33052
#        47097
#        59550
#        72275
#        86732
#        100147
#        113575
#        126415
#        139015
#        150060
#        162212
#        176080
#        189075
#        200960
#        214755
#        228285
#        240112
#        251825
#        264410
#        275972
#        287027
#        298432
#        311610
#        325730
#        337560
#
# Disc length: 4674 seconds
#
# Revision: 5
# Processed by: cddbd v1.5.2PL0 Copyright (c) Steve Scherf et al.
# Submitted via: ExactAudioCopyFreeDBPlugin 1.0
#
DISCID=9b12401d
DTITLE=Various Artist - Roots n' Blues:  The Retrospective, 1925-1950
DTITLE=[box set]
DYEAR=1992
DGENRE=Blues
TTITLE0=W. Lee O'Daniel and His Light Crust Doughboys - Doughboys Theme 
TTITLE0=Song #1
TTITLE1=W. Lee O'Daniel and His Hillbilly Boys - Ida (Sweet As Apple Cid
TTITLE1=er)
TTITLE2=W. Lee O'Daniel and His Light Crust Doughboys - Doughboys Theme 
TTITLE2=Song #2
TTITLE3=Blind Willie (McTell) and Partner - Bell Street Lightnin'
TTITLE4=Charlie Patton - Jersey Bull Blues
TTITLE5=Walter Roland - Every Morning Blues
TTITLE6=Blue Ridge Ramblers - D Blues
TTITLE7=Breaux Freresa - La Valse des Yeux Bleu (Blue Eyes Waltz)
TTITLE8=Lucille Bogan (Bessie Jackson) - Skin Game Blues
TTITLE9=Leroy Carr with Scrapper Blackwell - Good Woman Blues
TTITLE10=Josh White (Pinewood Tom) - Sissy Man
TTITLE11=The Rhythm Wreckers - Blue Yodel #2 (My Lovin' Gal Lucille)
TTITLE12=The Anglin Twins (Jack and Jim) - Just Inside the Pearly Gate
TTITLE12=s
TTITLE13=Bumble Bee Slim (Amos Easton) - Hard Rocks in My Bed
TTITLE14=The Two Charles - Tired Feelin' Blues
TTITLE15=Eidon Baker and His Brown County Revellers - One Eyed Sam
TTITLE16=A'nt Idy Harper and The Coon Creek Girls - Poor Naomi Wise
TTITLE17=(Kid) Prince Moore - South Bound Blues
TTITLE18=Big Bill Broonzy - C and A Blues
TTITLE19=George Curry - My Last Five Dollars
TTITLE20=The Nite Owls - Memphis Blues
TTITLE21=The Alley Boys of Abbeville - Pourquoi Tu M'Aime Pas
TTITLE22=Reverend Benny Campbell (Meetin' House in Dixie) - Have Mercy
TTITLE22=on Me
TTITLE23=Albert Ammons - Shout for Joy
TTITLE24=Jack Kelly - Flower Blues
TTITLE25=Cliff Carlisle (Bob Clifford) - Onion Eating Mama
TTITLE26=Callahan Bros. - Brown's Ferry Blues #2
TTITLE27=Little Buddy Doyle - Slick Capers Blues
TTITLE28=Bill Jazz Gillum (Bill McKinley) - Poor Boy Blues
EXTD=
EXTT0=
EXTT1=
EXTT2=
EXTT3=
EXTT4=
EXTT5=
EXTT6=
EXTT7=
EXTT8=
EXTT9=
EXTT10=
EXTT11=
EXTT12=
EXTT13=
EXTT14=
EXTT15=
EXTT16=
EXTT17=
EXTT18=
EXTT19=
EXTT20=
EXTT21=
EXTT22=
EXTT23=
EXTT24=
EXTT25=
EXTT26=
EXTT27=
EXTT28=
PLAYORDER=
